# xmcd CD database file
# Copyright (C) 1995-1998 Ti Kan
#
# Track frame offsets:
#	150
#	11352
#	23252
#	33622
#	49180
#	62957
#	74835
#	88830
#	98657
#	115580
#
# Disc length: 1697 seconds
#
# Revision: 1
# Processed by: cddbd v1.4PL0 Copyright (c) Steve Scherf et al.
# Submitted via: CDex 1.30Release
#
DISCID=7d069f0a
DTITLE=Conway Twitty - The Final Recordings Of His Greatest Hits (Volume 2)
DYEAR=1993
DGENRE=Country
TTITLE0=It's Only Make Believe
TTITLE1=Linda On My Mind
TTITLE2=(I Can't Believe) She Gives It All To Me
TTITLE3=Touch The Hand
TTITLE4=Baby's Gone
TTITLE5=She Needs Someone To Hold Her (When She Cries)
TTITLE6=Fifteen Years Ago
TTITLE7=I'll Try
TTITLE8=Don't Cry Joni
TTITLE9=I'm Not Through Loving You Yet
EXTD=YEAR: 1993 ID3G:   2
EXTT0=
EXTT1=
EXTT2=
EXTT3=
EXTT4=
EXTT5=
EXTT6=
EXTT7=
EXTT8=
EXTT9=
PLAYORDER=
